<svg xmlns="http://www.w3.org/2000/svg" xmlns:xlink="http://www.w3.org/1999/xlink" width="250" zoomAndPan="magnify" viewBox="0 0 187.5 37.5" height="50" preserveAspectRatio="xMidYMid meet" version="1.0"><defs><g/></defs><g fill="#ab2328" fill-opacity="1"><g transform="translate(0.986842, 28.707192)"><g><path d="M 15.703125 -15.671875 C 15.703125 -12.710938 14.578125 -10.8125 12.328125 -9.96875 L 16.53125 0 L 11.953125 0 L 8.234375 -9.109375 L 6.1875 -9.109375 L 6.1875 0 L 1.921875 0 L 1.921875 -22.359375 L 8.203125 -22.359375 C 10.535156 -22.359375 12.367188 -21.804688 13.703125 -20.703125 C 15.035156 -19.597656 15.703125 -17.921875 15.703125 -15.671875 Z M 11.421875 -15.734375 C 11.421875 -16.742188 11.164062 -17.507812 10.65625 -18.03125 C 10.15625 -18.5625 9.421875 -18.828125 8.453125 -18.828125 L 6.1875 -18.828125 L 6.1875 -12.640625 L 8.484375 -12.640625 C 9.429688 -12.640625 10.15625 -12.898438 10.65625 -13.421875 C 11.164062 -13.953125 11.421875 -14.722656 11.421875 -15.734375 Z M 11.421875 -15.734375 "/></g></g></g><g fill="#ab2328" fill-opacity="1"><g transform="translate(18.204294, 28.707192)"><g><path d="M 16.171875 -15.671875 C 16.171875 -13.421875 15.476562 -11.742188 14.09375 -10.640625 C 12.707031 -9.535156 10.828125 -8.984375 8.453125 -8.984375 L 6.4375 -8.984375 L 6.4375 0 L 2.171875 0 L 2.171875 -22.359375 L 8.484375 -22.359375 C 10.835938 -22.359375 12.707031 -21.804688 14.09375 -20.703125 C 15.476562 -19.597656 16.171875 -17.921875 16.171875 -15.671875 Z M 11.890625 -15.671875 C 11.890625 -16.722656 11.617188 -17.507812 11.078125 -18.03125 C 10.546875 -18.5625 9.796875 -18.828125 8.828125 -18.828125 L 6.4375 -18.828125 L 6.4375 -12.515625 L 8.828125 -12.515625 C 9.796875 -12.515625 10.546875 -12.773438 11.078125 -13.296875 C 11.617188 -13.828125 11.890625 -14.617188 11.890625 -15.671875 Z M 11.890625 -15.671875 "/></g></g></g><g fill="#ab2328" fill-opacity="1"><g transform="translate(35.421747, 28.707192)"><g><path d="M 2.171875 0 L 2.171875 -22.359375 L 6.4375 -22.359375 L 6.4375 0 Z M 2.171875 0 "/></g></g></g><g fill="#ab2328" fill-opacity="1"><g transform="translate(44.174267, 28.554901)"><g><path d="M 10.015625 -9.203125 L 10.015625 -5.078125 C 10.015625 -1.691406 8.382812 0 5.125 0 L 1.21875 0 L 1.21875 -14.28125 L 5.125 -14.28125 C 8.382812 -14.28125 10.015625 -12.585938 10.015625 -9.203125 Z M 7.28125 -5.1875 L 7.28125 -9.125 C 7.28125 -10.070312 7.09375 -10.765625 6.71875 -11.203125 C 6.351562 -11.648438 5.75 -11.875 4.90625 -11.875 L 3.953125 -11.875 L 3.953125 -2.40625 L 4.8125 -2.40625 C 5.71875 -2.40625 6.351562 -2.632812 6.71875 -3.09375 C 7.09375 -3.5625 7.28125 -4.257812 7.28125 -5.1875 Z M 7.28125 -5.1875 "/></g></g></g><g fill="#ab2328" fill-opacity="1"><g transform="translate(55.17502, 28.554901)"><g><path d="M 10.015625 -9.796875 L 10.015625 -4.484375 C 10.015625 -2.984375 9.632812 -1.828125 8.875 -1.015625 C 8.125 -0.203125 7 0.203125 5.5 0.203125 C 4 0.203125 2.867188 -0.203125 2.109375 -1.015625 C 1.359375 -1.828125 0.984375 -2.984375 0.984375 -4.484375 L 0.984375 -9.796875 C 0.984375 -11.296875 1.363281 -12.453125 2.125 -13.265625 C 2.882812 -14.078125 4.007812 -14.484375 5.5 -14.484375 C 7.039062 -14.484375 8.175781 -14.066406 8.90625 -13.234375 C 9.644531 -12.398438 10.015625 -11.253906 10.015625 -9.796875 Z M 5.5 -2.21875 C 6.132812 -2.21875 6.585938 -2.378906 6.859375 -2.703125 C 7.140625 -3.023438 7.28125 -3.507812 7.28125 -4.15625 L 7.28125 -10.125 C 7.28125 -10.757812 7.140625 -11.238281 6.859375 -11.5625 C 6.585938 -11.894531 6.128906 -12.0625 5.484375 -12.0625 C 4.859375 -12.0625 4.40625 -11.894531 4.125 -11.5625 C 3.851562 -11.238281 3.71875 -10.757812 3.71875 -10.125 L 3.71875 -4.15625 C 3.71875 -3.507812 3.851562 -3.023438 4.125 -2.703125 C 4.40625 -2.378906 4.863281 -2.21875 5.5 -2.21875 Z M 5.5 -2.21875 "/></g></g></g><g fill="#ab2328" fill-opacity="1"><g transform="translate(66.175772, 28.554901)"><g><path d="M 10.03125 -10.015625 C 10.03125 -8.128906 9.3125 -6.914062 7.875 -6.375 L 10.5625 0 L 7.640625 0 L 5.265625 -5.8125 L 3.953125 -5.8125 L 3.953125 0 L 1.21875 0 L 1.21875 -14.28125 L 5.234375 -14.28125 C 6.734375 -14.28125 7.90625 -13.925781 8.75 -13.21875 C 9.601562 -12.519531 10.03125 -11.453125 10.03125 -10.015625 Z M 7.296875 -10.046875 C 7.296875 -10.691406 7.132812 -11.179688 6.8125 -11.515625 C 6.488281 -11.859375 6.019531 -12.03125 5.40625 -12.03125 L 3.953125 -12.03125 L 3.953125 -8.078125 L 5.421875 -8.078125 C 6.023438 -8.078125 6.488281 -8.242188 6.8125 -8.578125 C 7.132812 -8.910156 7.296875 -9.398438 7.296875 -10.046875 Z M 7.296875 -10.046875 "/></g></g></g><g fill="#ab2328" fill-opacity="1"><g transform="translate(77.176525, 28.554901)"><g><path d="M 7.71875 -4.921875 L 10.1875 -14.28125 L 14 -14.28125 L 14 0 L 11.671875 0 L 11.671875 -11.234375 L 11.625 -11.234375 L 8.71875 0 L 6.671875 0 L 3.765625 -11.234375 L 3.71875 -11.234375 L 3.71875 0 L 1.390625 0 L 1.390625 -14.28125 L 5.203125 -14.28125 L 7.671875 -4.921875 Z M 7.71875 -4.921875 "/></g></g></g><g fill="#ab2328" fill-opacity="1"><g transform="translate(92.569664, 28.554901)"><g><path d="M 9.71875 -11.015625 L 7.265625 -10.3125 C 7.035156 -10.976562 6.757812 -11.460938 6.4375 -11.765625 C 6.125 -12.066406 5.734375 -12.21875 5.265625 -12.21875 C 4.785156 -12.21875 4.414062 -12.078125 4.15625 -11.796875 C 3.894531 -11.523438 3.765625 -11.15625 3.765625 -10.6875 C 3.765625 -10.257812 3.957031 -9.890625 4.34375 -9.578125 C 4.726562 -9.273438 5.304688 -8.929688 6.078125 -8.546875 L 6.421875 -8.34375 C 7.585938 -7.726562 8.445312 -7.070312 9 -6.375 C 9.5625 -5.6875 9.84375 -4.851562 9.84375 -3.875 C 9.84375 -2.59375 9.421875 -1.59375 8.578125 -0.875 C 7.734375 -0.15625 6.648438 0.203125 5.328125 0.203125 C 4.117188 0.203125 3.117188 -0.132812 2.328125 -0.8125 C 1.535156 -1.5 0.972656 -2.5 0.640625 -3.8125 L 3.328125 -4.390625 C 3.453125 -3.648438 3.707031 -3.078125 4.09375 -2.671875 C 4.476562 -2.265625 4.925781 -2.0625 5.4375 -2.0625 C 5.9375 -2.0625 6.34375 -2.21875 6.65625 -2.53125 C 6.96875 -2.84375 7.125 -3.253906 7.125 -3.765625 C 7.125 -4.140625 7.015625 -4.460938 6.796875 -4.734375 C 6.578125 -5.015625 6.289062 -5.28125 5.9375 -5.53125 C 5.582031 -5.789062 5.160156 -6.046875 4.671875 -6.296875 C 4.191406 -6.554688 3.890625 -6.726562 3.765625 -6.8125 C 2.835938 -7.320312 2.148438 -7.875 1.703125 -8.46875 C 1.253906 -9.070312 1.03125 -9.742188 1.03125 -10.484375 C 1.03125 -11.773438 1.40625 -12.765625 2.15625 -13.453125 C 2.914062 -14.140625 3.972656 -14.484375 5.328125 -14.484375 C 6.441406 -14.484375 7.378906 -14.179688 8.140625 -13.578125 C 8.910156 -12.984375 9.4375 -12.128906 9.71875 -11.015625 Z M 9.71875 -11.015625 "/></g></g></g></svg>