<svg xmlns="http://www.w3.org/2000/svg" xmlns:xlink="http://www.w3.org/1999/xlink" width="1000" zoomAndPan="magnify" viewBox="0 0 750 299.999988" height="400" preserveAspectRatio="xMidYMid meet" version="1.0"><defs><g/><clipPath id="7b51561bb0"><path d="M 86 81.207031 L 154.5 81.207031 L 154.5 92 L 86 92 Z M 86 81.207031 " clip-rule="nonzero"/></clipPath><clipPath id="661e6172d4"><path d="M 90 88 L 151 88 L 151 201.207031 L 90 201.207031 Z M 90 88 " clip-rule="nonzero"/></clipPath><clipPath id="a2d9b2808d"><path d="M 34 100 L 94 100 L 94 201.207031 L 34 201.207031 Z M 34 100 " clip-rule="nonzero"/></clipPath><clipPath id="64382c813d"><path d="M 51 175 L 77 175 L 77 201.207031 L 51 201.207031 Z M 51 175 " clip-rule="nonzero"/></clipPath><clipPath id="eea19159d9"><path d="M 107 175 L 134 175 L 134 201.207031 L 107 201.207031 Z M 107 175 " clip-rule="nonzero"/></clipPath></defs><g fill="#c8102e" fill-opacity="1"><g transform="translate(171.960939, 193.542003)"><g><path d="M 42 0 L 27.390625 -26.5 L 23.296875 -26.5 L 23.296875 0 L 6.203125 0 L 6.203125 -70.1875 L 34.890625 -70.1875 C 40.421875 -70.1875 45.132812 -69.21875 49.03125 -67.28125 C 52.9375 -65.351562 55.851562 -62.707031 57.78125 -59.34375 C 59.71875 -55.976562 60.6875 -52.226562 60.6875 -48.09375 C 60.6875 -43.425781 59.367188 -39.257812 56.734375 -35.59375 C 54.109375 -31.925781 50.226562 -29.328125 45.09375 -27.796875 L 61.296875 0 Z M 23.296875 -38.59375 L 33.890625 -38.59375 C 37.023438 -38.59375 39.375 -39.359375 40.9375 -40.890625 C 42.507812 -42.421875 43.296875 -44.585938 43.296875 -47.390625 C 43.296875 -50.054688 42.507812 -52.15625 40.9375 -53.6875 C 39.375 -55.21875 37.023438 -55.984375 33.890625 -55.984375 L 23.296875 -55.984375 Z M 23.296875 -38.59375 "/></g></g></g><g fill="#c8102e" fill-opacity="1"><g transform="translate(237.150727, 193.542003)"><g><path d="M 59.6875 -47.59375 C 59.6875 -43.53125 58.753906 -39.8125 56.890625 -36.4375 C 55.023438 -33.070312 52.160156 -30.359375 48.296875 -28.296875 C 44.429688 -26.234375 39.628906 -25.203125 33.890625 -25.203125 L 23.296875 -25.203125 L 23.296875 0 L 6.203125 0 L 6.203125 -70.1875 L 33.890625 -70.1875 C 39.492188 -70.1875 44.226562 -69.21875 48.09375 -67.28125 C 51.957031 -65.351562 54.851562 -62.6875 56.78125 -59.28125 C 58.71875 -55.882812 59.6875 -51.988281 59.6875 -47.59375 Z M 32.59375 -38.796875 C 35.863281 -38.796875 38.296875 -39.5625 39.890625 -41.09375 C 41.492188 -42.625 42.296875 -44.789062 42.296875 -47.59375 C 42.296875 -50.394531 41.492188 -52.5625 39.890625 -54.09375 C 38.296875 -55.625 35.863281 -56.390625 32.59375 -56.390625 L 23.296875 -56.390625 L 23.296875 -38.796875 Z M 32.59375 -38.796875 "/></g></g></g><g fill="#c8102e" fill-opacity="1"><g transform="translate(299.540957, 193.542003)"><g><path d="M 23.296875 -70.1875 L 23.296875 0 L 6.203125 0 L 6.203125 -70.1875 Z M 23.296875 -70.1875 "/></g></g></g><g fill="#c8102e" fill-opacity="1"><g transform="translate(329.036339, 193.542003)"><g/></g></g><g fill="#c8102e" fill-opacity="1"><g transform="translate(350.233016, 193.542003)"><g><path d="M 32.5 -70.1875 C 39.894531 -70.1875 46.359375 -68.71875 51.890625 -65.78125 C 57.421875 -62.851562 61.703125 -58.738281 64.734375 -53.4375 C 67.773438 -48.144531 69.296875 -42.03125 69.296875 -35.09375 C 69.296875 -28.226562 67.773438 -22.128906 64.734375 -16.796875 C 61.703125 -11.460938 57.40625 -7.328125 51.84375 -4.390625 C 46.28125 -1.460938 39.832031 0 32.5 0 L 6.203125 0 L 6.203125 -70.1875 Z M 31.390625 -14.796875 C 37.859375 -14.796875 42.890625 -16.5625 46.484375 -20.09375 C 50.085938 -23.625 51.890625 -28.625 51.890625 -35.09375 C 51.890625 -41.5625 50.085938 -46.59375 46.484375 -50.1875 C 42.890625 -53.789062 37.859375 -55.59375 31.390625 -55.59375 L 23.296875 -55.59375 L 23.296875 -14.796875 Z M 31.390625 -14.796875 "/></g></g></g><g fill="#c8102e" fill-opacity="1"><g transform="translate(422.921635, 193.542003)"><g><path d="M 39.390625 0.703125 C 32.796875 0.703125 26.75 -0.828125 21.25 -3.890625 C 15.75 -6.960938 11.378906 -11.25 8.140625 -16.75 C 4.910156 -22.25 3.296875 -28.429688 3.296875 -35.296875 C 3.296875 -42.160156 4.910156 -48.320312 8.140625 -53.78125 C 11.378906 -59.25 15.75 -63.515625 21.25 -66.578125 C 26.75 -69.648438 32.796875 -71.1875 39.390625 -71.1875 C 45.992188 -71.1875 52.046875 -69.648438 57.546875 -66.578125 C 63.046875 -63.515625 67.375 -59.25 70.53125 -53.78125 C 73.695312 -48.320312 75.28125 -42.160156 75.28125 -35.296875 C 75.28125 -28.429688 73.679688 -22.25 70.484375 -16.75 C 67.285156 -11.25 62.953125 -6.960938 57.484375 -3.890625 C 52.023438 -0.828125 45.992188 0.703125 39.390625 0.703125 Z M 39.390625 -14.890625 C 44.992188 -14.890625 49.476562 -16.753906 52.84375 -20.484375 C 56.207031 -24.222656 57.890625 -29.160156 57.890625 -35.296875 C 57.890625 -41.492188 56.207031 -46.441406 52.84375 -50.140625 C 49.476562 -53.835938 44.992188 -55.6875 39.390625 -55.6875 C 33.722656 -55.6875 29.207031 -53.851562 25.84375 -50.1875 C 22.476562 -46.519531 20.796875 -41.554688 20.796875 -35.296875 C 20.796875 -29.097656 22.476562 -24.144531 25.84375 -20.4375 C 29.207031 -16.738281 33.722656 -14.890625 39.390625 -14.890625 Z M 39.390625 -14.890625 "/></g></g></g><g fill="#c8102e" fill-opacity="1"><g transform="translate(501.509329, 193.542003)"><g><path d="M 42 0 L 27.390625 -26.5 L 23.296875 -26.5 L 23.296875 0 L 6.203125 0 L 6.203125 -70.1875 L 34.890625 -70.1875 C 40.421875 -70.1875 45.132812 -69.21875 49.03125 -67.28125 C 52.9375 -65.351562 55.851562 -62.707031 57.78125 -59.34375 C 59.71875 -55.976562 60.6875 -52.226562 60.6875 -48.09375 C 60.6875 -43.425781 59.367188 -39.257812 56.734375 -35.59375 C 54.109375 -31.925781 50.226562 -29.328125 45.09375 -27.796875 L 61.296875 0 Z M 23.296875 -38.59375 L 33.890625 -38.59375 C 37.023438 -38.59375 39.375 -39.359375 40.9375 -40.890625 C 42.507812 -42.421875 43.296875 -44.585938 43.296875 -47.390625 C 43.296875 -50.054688 42.507812 -52.15625 40.9375 -53.6875 C 39.375 -55.21875 37.023438 -55.984375 33.890625 -55.984375 L 23.296875 -55.984375 Z M 23.296875 -38.59375 "/></g></g></g><g fill="#c8102e" fill-opacity="1"><g transform="translate(566.699128, 193.542003)"><g><path d="M 85.6875 -70.1875 L 85.6875 0 L 68.59375 0 L 68.59375 -42.09375 L 52.890625 0 L 39.09375 0 L 23.296875 -42.1875 L 23.296875 0 L 6.203125 0 L 6.203125 -70.1875 L 26.390625 -70.1875 L 46.09375 -21.59375 L 65.59375 -70.1875 Z M 85.6875 -70.1875 "/></g></g></g><g fill="#c8102e" fill-opacity="1"><g transform="translate(658.484764, 193.542003)"><g><path d="M 31.59375 0.703125 C 26.457031 0.703125 21.859375 -0.128906 17.796875 -1.796875 C 13.734375 -3.460938 10.484375 -5.925781 8.046875 -9.1875 C 5.617188 -12.457031 4.335938 -16.394531 4.203125 -21 L 22.390625 -21 C 22.660156 -18.394531 23.5625 -16.410156 25.09375 -15.046875 C 26.625 -13.679688 28.625 -13 31.09375 -13 C 33.625 -13 35.625 -13.582031 37.09375 -14.75 C 38.5625 -15.914062 39.296875 -17.53125 39.296875 -19.59375 C 39.296875 -21.332031 38.710938 -22.765625 37.546875 -23.890625 C 36.378906 -25.023438 34.941406 -25.957031 33.234375 -26.6875 C 31.535156 -27.425781 29.125 -28.265625 26 -29.203125 C 21.46875 -30.597656 17.765625 -31.992188 14.890625 -33.390625 C 12.023438 -34.796875 9.5625 -36.863281 7.5 -39.59375 C 5.4375 -42.320312 4.40625 -45.890625 4.40625 -50.296875 C 4.40625 -56.828125 6.769531 -61.941406 11.5 -65.640625 C 16.226562 -69.335938 22.394531 -71.1875 30 -71.1875 C 37.726562 -71.1875 43.957031 -69.335938 48.6875 -65.640625 C 53.425781 -61.941406 55.960938 -56.789062 56.296875 -50.1875 L 37.796875 -50.1875 C 37.660156 -52.457031 36.828125 -54.238281 35.296875 -55.53125 C 33.765625 -56.832031 31.796875 -57.484375 29.390625 -57.484375 C 27.328125 -57.484375 25.660156 -56.929688 24.390625 -55.828125 C 23.128906 -54.734375 22.5 -53.15625 22.5 -51.09375 C 22.5 -48.820312 23.5625 -47.050781 25.6875 -45.78125 C 27.820312 -44.519531 31.15625 -43.15625 35.6875 -41.6875 C 40.226562 -40.15625 43.910156 -38.6875 46.734375 -37.28125 C 49.566406 -35.882812 52.015625 -33.851562 54.078125 -31.1875 C 56.148438 -28.53125 57.1875 -25.097656 57.1875 -20.890625 C 57.1875 -16.890625 56.171875 -13.253906 54.140625 -9.984375 C 52.109375 -6.722656 49.160156 -4.125 45.296875 -2.1875 C 41.429688 -0.257812 36.863281 0.703125 31.59375 0.703125 Z M 31.59375 0.703125 "/></g></g></g><g clip-path="url(#7b51561bb0)"><path fill="#c8102e" d="M 153.050781 91.390625 L 88.097656 91.390625 C 87.289062 91.390625 86.636719 90.738281 86.636719 89.933594 L 86.636719 82.671875 C 86.636719 81.867188 87.289062 81.210938 88.097656 81.210938 L 153.050781 81.210938 C 153.859375 81.210938 154.511719 81.867188 154.511719 82.671875 L 154.511719 89.933594 C 154.511719 90.738281 153.859375 91.390625 153.050781 91.390625 Z M 89.554688 88.472656 L 151.59375 88.472656 L 151.59375 84.128906 L 89.554688 84.128906 Z M 89.554688 88.472656 " fill-opacity="1" fill-rule="nonzero"/></g><g clip-path="url(#661e6172d4)"><path fill="#c8102e" d="M 148.84375 201.203125 L 92.304688 201.203125 C 91.5 201.203125 90.847656 200.546875 90.847656 199.742188 L 90.847656 89.933594 C 90.847656 89.125 91.5 88.472656 92.304688 88.472656 L 148.84375 88.472656 C 149.648438 88.472656 150.300781 89.125 150.300781 89.933594 L 150.300781 199.742188 C 150.300781 200.546875 149.648438 201.203125 148.84375 201.203125 Z M 93.765625 198.285156 L 147.382812 198.285156 L 147.382812 91.390625 L 93.765625 91.390625 Z M 93.765625 198.285156 " fill-opacity="1" fill-rule="nonzero"/></g><path fill="#c8102e" d="M 113.957031 109.84375 L 102.832031 109.84375 C 102.027344 109.84375 101.371094 109.191406 101.371094 108.386719 L 101.371094 97.191406 C 101.371094 96.386719 102.027344 95.734375 102.832031 95.734375 L 113.957031 95.734375 C 114.765625 95.734375 115.417969 96.386719 115.417969 97.191406 L 115.417969 108.386719 C 115.417969 109.191406 114.765625 109.84375 113.957031 109.84375 Z M 104.289062 106.925781 L 112.5 106.925781 L 112.5 98.652344 L 104.289062 98.652344 Z M 104.289062 106.925781 " fill-opacity="1" fill-rule="nonzero"/><path fill="#c8102e" d="M 138.316406 109.84375 L 127.191406 109.84375 C 126.382812 109.84375 125.730469 109.191406 125.730469 108.386719 L 125.730469 97.191406 C 125.730469 96.386719 126.382812 95.734375 127.191406 95.734375 L 138.316406 95.734375 C 139.121094 95.734375 139.777344 96.386719 139.777344 97.191406 L 139.777344 108.386719 C 139.777344 109.191406 139.121094 109.84375 138.316406 109.84375 Z M 128.648438 106.925781 L 136.859375 106.925781 L 136.859375 98.652344 L 128.648438 98.652344 Z M 128.648438 106.925781 " fill-opacity="1" fill-rule="nonzero"/><path fill="#c8102e" d="M 113.859375 130.71875 L 102.730469 130.71875 C 101.925781 130.71875 101.273438 130.0625 101.273438 129.257812 L 101.273438 118.066406 C 101.273438 117.257812 101.925781 116.605469 102.730469 116.605469 L 113.859375 116.605469 C 114.664062 116.605469 115.316406 117.257812 115.316406 118.066406 L 115.316406 129.257812 C 115.316406 130.0625 114.664062 130.71875 113.859375 130.71875 Z M 104.191406 127.800781 L 112.398438 127.800781 L 112.398438 119.523438 L 104.191406 119.523438 Z M 104.191406 127.800781 " fill-opacity="1" fill-rule="nonzero"/><path fill="#c8102e" d="M 138.214844 130.71875 L 127.089844 130.71875 C 126.285156 130.71875 125.628906 130.0625 125.628906 129.257812 L 125.628906 118.066406 C 125.628906 117.257812 126.285156 116.605469 127.089844 116.605469 L 138.214844 116.605469 C 139.023438 116.605469 139.675781 117.257812 139.675781 118.066406 L 139.675781 129.257812 C 139.675781 130.0625 139.023438 130.71875 138.214844 130.71875 Z M 128.550781 127.800781 L 136.757812 127.800781 L 136.757812 119.523438 L 128.550781 119.523438 Z M 128.550781 127.800781 " fill-opacity="1" fill-rule="nonzero"/><path fill="#c8102e" d="M 113.757812 151.589844 L 102.632812 151.589844 C 101.824219 151.589844 101.171875 150.9375 101.171875 150.132812 L 101.171875 138.9375 C 101.171875 138.132812 101.824219 137.480469 102.632812 137.480469 L 113.757812 137.480469 C 114.5625 137.480469 115.21875 138.132812 115.21875 138.9375 L 115.21875 150.132812 C 115.21875 150.9375 114.5625 151.589844 113.757812 151.589844 Z M 104.089844 148.671875 L 112.296875 148.671875 L 112.296875 140.398438 L 104.089844 140.398438 Z M 104.089844 148.671875 " fill-opacity="1" fill-rule="nonzero"/><path fill="#c8102e" d="M 138.117188 151.589844 L 126.988281 151.589844 C 126.183594 151.589844 125.53125 150.9375 125.53125 150.132812 L 125.53125 138.9375 C 125.53125 138.132812 126.183594 137.480469 126.988281 137.480469 L 138.117188 137.480469 C 138.921875 137.480469 139.574219 138.132812 139.574219 138.9375 L 139.574219 150.132812 C 139.574219 150.9375 138.921875 151.589844 138.117188 151.589844 Z M 128.449219 148.671875 L 136.65625 148.671875 L 136.65625 140.398438 L 128.449219 140.398438 Z M 128.449219 148.671875 " fill-opacity="1" fill-rule="nonzero"/><path fill="#c8102e" d="M 113.65625 172.464844 L 102.53125 172.464844 C 101.726562 172.464844 101.070312 171.808594 101.070312 171.003906 L 101.070312 159.8125 C 101.070312 159.003906 101.726562 158.351562 102.53125 158.351562 L 113.65625 158.351562 C 114.464844 158.351562 115.117188 159.003906 115.117188 159.8125 L 115.117188 171.003906 C 115.117188 171.808594 114.464844 172.464844 113.65625 172.464844 Z M 103.988281 169.546875 L 112.199219 169.546875 L 112.199219 161.269531 L 103.988281 161.269531 Z M 103.988281 169.546875 " fill-opacity="1" fill-rule="nonzero"/><path fill="#c8102e" d="M 138.015625 172.464844 L 126.890625 172.464844 C 126.082031 172.464844 125.429688 171.808594 125.429688 171.003906 L 125.429688 159.8125 C 125.429688 159.003906 126.082031 158.351562 126.890625 158.351562 L 138.015625 158.351562 C 138.820312 158.351562 139.476562 159.003906 139.476562 159.8125 L 139.476562 171.003906 C 139.476562 171.808594 138.820312 172.464844 138.015625 172.464844 Z M 128.347656 169.546875 L 136.558594 169.546875 L 136.558594 161.269531 L 128.347656 161.269531 Z M 128.347656 169.546875 " fill-opacity="1" fill-rule="nonzero"/><path fill="#c8102e" d="M 92.304688 110.75 L 31.460938 110.75 C 30.652344 110.75 30 110.097656 30 109.292969 L 30 102.03125 C 30 101.226562 30.652344 100.574219 31.460938 100.574219 L 92.304688 100.574219 C 93.109375 100.574219 93.765625 101.226562 93.765625 102.03125 C 93.765625 102.839844 93.109375 103.492188 92.304688 103.492188 L 32.917969 103.492188 L 32.917969 107.832031 L 92.304688 107.832031 C 93.109375 107.832031 93.765625 108.488281 93.765625 109.292969 C 93.765625 110.097656 93.109375 110.75 92.304688 110.75 Z M 92.304688 110.75 " fill-opacity="1" fill-rule="nonzero"/><g clip-path="url(#a2d9b2808d)"><path fill="#c8102e" d="M 92.304688 201.203125 L 35.769531 201.203125 C 34.964844 201.203125 34.308594 200.546875 34.308594 199.742188 L 34.308594 109.292969 C 34.308594 108.488281 34.964844 107.832031 35.769531 107.832031 C 36.574219 107.832031 37.226562 108.488281 37.226562 109.292969 L 37.226562 198.285156 L 90.847656 198.285156 L 90.847656 102.03125 C 90.847656 101.226562 91.5 100.574219 92.304688 100.574219 C 93.109375 100.574219 93.765625 101.226562 93.765625 102.03125 L 93.765625 199.742188 C 93.765625 200.546875 93.109375 201.203125 92.304688 201.203125 Z M 92.304688 201.203125 " fill-opacity="1" fill-rule="nonzero"/></g><path fill="#c8102e" d="M 57.320312 129.808594 L 46.195312 129.808594 C 45.390625 129.808594 44.734375 129.15625 44.734375 128.351562 L 44.734375 117.15625 C 44.734375 116.351562 45.390625 115.699219 46.195312 115.699219 L 57.320312 115.699219 C 58.128906 115.699219 58.78125 116.351562 58.78125 117.15625 L 58.78125 128.351562 C 58.78125 129.15625 58.128906 129.808594 57.320312 129.808594 Z M 47.652344 126.890625 L 55.863281 126.890625 L 55.863281 118.617188 L 47.652344 118.617188 Z M 47.652344 126.890625 " fill-opacity="1" fill-rule="nonzero"/><path fill="#c8102e" d="M 81.679688 129.808594 L 70.554688 129.808594 C 69.746094 129.808594 69.09375 129.15625 69.09375 128.351562 L 69.09375 117.15625 C 69.09375 116.351562 69.746094 115.699219 70.554688 115.699219 L 81.679688 115.699219 C 82.484375 115.699219 83.140625 116.351562 83.140625 117.15625 L 83.140625 128.351562 C 83.140625 129.15625 82.484375 129.808594 81.679688 129.808594 Z M 72.011719 126.890625 L 80.222656 126.890625 L 80.222656 118.617188 L 72.011719 118.617188 Z M 72.011719 126.890625 " fill-opacity="1" fill-rule="nonzero"/><path fill="#c8102e" d="M 57.222656 150.683594 L 46.09375 150.683594 C 45.289062 150.683594 44.636719 150.03125 44.636719 149.222656 L 44.636719 138.03125 C 44.636719 137.226562 45.289062 136.570312 46.09375 136.570312 L 57.222656 136.570312 C 58.027344 136.570312 58.679688 137.226562 58.679688 138.03125 L 58.679688 149.222656 C 58.679688 150.03125 58.027344 150.683594 57.222656 150.683594 Z M 47.554688 147.765625 L 55.761719 147.765625 L 55.761719 139.488281 L 47.554688 139.488281 Z M 47.554688 147.765625 " fill-opacity="1" fill-rule="nonzero"/><path fill="#c8102e" d="M 81.582031 150.683594 L 70.453125 150.683594 C 69.648438 150.683594 68.996094 150.03125 68.996094 149.222656 L 68.996094 138.03125 C 68.996094 137.226562 69.648438 136.570312 70.453125 136.570312 L 81.582031 136.570312 C 82.386719 136.570312 83.039062 137.226562 83.039062 138.03125 L 83.039062 149.222656 C 83.039062 150.03125 82.386719 150.683594 81.582031 150.683594 Z M 71.914062 147.765625 L 80.121094 147.765625 L 80.121094 139.488281 L 71.914062 139.488281 Z M 71.914062 147.765625 " fill-opacity="1" fill-rule="nonzero"/><path fill="#c8102e" d="M 57.121094 171.554688 L 45.996094 171.554688 C 45.1875 171.554688 44.535156 170.902344 44.535156 170.097656 L 44.535156 158.902344 C 44.535156 158.097656 45.1875 157.445312 45.996094 157.445312 L 57.121094 157.445312 C 57.925781 157.445312 58.578125 158.097656 58.578125 158.902344 L 58.578125 170.097656 C 58.578125 170.902344 57.925781 171.554688 57.121094 171.554688 Z M 47.453125 168.636719 L 55.660156 168.636719 L 55.660156 160.363281 L 47.453125 160.363281 Z M 47.453125 168.636719 " fill-opacity="1" fill-rule="nonzero"/><path fill="#c8102e" d="M 81.480469 171.554688 L 70.351562 171.554688 C 69.546875 171.554688 68.894531 170.902344 68.894531 170.097656 L 68.894531 158.902344 C 68.894531 158.097656 69.546875 157.445312 70.351562 157.445312 L 81.480469 157.445312 C 82.285156 157.445312 82.9375 158.097656 82.9375 158.902344 L 82.9375 170.097656 C 82.9375 170.902344 82.285156 171.554688 81.480469 171.554688 Z M 71.8125 168.636719 L 80.019531 168.636719 L 80.019531 160.363281 L 71.8125 160.363281 Z M 71.8125 168.636719 " fill-opacity="1" fill-rule="nonzero"/><g clip-path="url(#64382c813d)"><path fill="#c8102e" d="M 75.363281 201.203125 L 52.8125 201.203125 C 52.003906 201.203125 51.351562 200.546875 51.351562 199.742188 L 51.351562 177.054688 C 51.351562 176.25 52.003906 175.59375 52.8125 175.59375 L 75.363281 175.59375 C 76.171875 175.59375 76.824219 176.25 76.824219 177.054688 L 76.824219 199.742188 C 76.824219 200.546875 76.171875 201.203125 75.363281 201.203125 Z M 54.269531 198.285156 L 73.90625 198.285156 L 73.90625 178.515625 L 54.269531 178.515625 Z M 54.269531 198.285156 " fill-opacity="1" fill-rule="nonzero"/></g><g clip-path="url(#eea19159d9)"><path fill="#c8102e" d="M 131.902344 201.203125 L 109.347656 201.203125 C 108.542969 201.203125 107.886719 200.546875 107.886719 199.742188 L 107.886719 177.054688 C 107.886719 176.25 108.542969 175.59375 109.347656 175.59375 L 131.902344 175.59375 C 132.707031 175.59375 133.359375 176.25 133.359375 177.054688 L 133.359375 199.742188 C 133.359375 200.546875 132.707031 201.203125 131.902344 201.203125 Z M 110.804688 198.285156 L 130.441406 198.285156 L 130.441406 178.515625 L 110.804688 178.515625 Z M 110.804688 198.285156 " fill-opacity="1" fill-rule="nonzero"/></g></svg>