<svg xmlns="http://www.w3.org/2000/svg" xmlns:xlink="http://www.w3.org/1999/xlink" width="250" zoomAndPan="magnify" viewBox="0 0 187.5 74.999997" height="100" preserveAspectRatio="xMidYMid meet" version="1.0"><defs><g/></defs><g fill="#ab2328" fill-opacity="1"><g transform="translate(-2.376739, 51.735143)"><g><path d="M 21.96875 -21.9375 C 21.96875 -17.800781 20.394531 -15.140625 17.25 -13.953125 L 23.140625 0 L 16.734375 0 L 11.53125 -12.75 L 8.671875 -12.75 L 8.671875 0 L 2.6875 0 L 2.6875 -31.296875 L 11.484375 -31.296875 C 14.753906 -31.296875 17.316406 -30.519531 19.171875 -28.96875 C 21.035156 -27.425781 21.96875 -25.082031 21.96875 -21.9375 Z M 16 -22.015625 C 16 -23.429688 15.644531 -24.507812 14.9375 -25.25 C 14.226562 -25.988281 13.191406 -26.359375 11.828125 -26.359375 L 8.671875 -26.359375 L 8.671875 -17.6875 L 11.875 -17.6875 C 13.207031 -17.6875 14.226562 -18.050781 14.9375 -18.78125 C 15.644531 -19.519531 16 -20.597656 16 -22.015625 Z M 16 -22.015625 "/></g></g></g><g fill="#ab2328" fill-opacity="1"><g transform="translate(21.718404, 51.735143)"><g><path d="M 22.625 -21.9375 C 22.625 -18.78125 21.65625 -16.425781 19.71875 -14.875 C 17.78125 -13.332031 15.148438 -12.5625 11.828125 -12.5625 L 9.015625 -12.5625 L 9.015625 0 L 3.03125 0 L 3.03125 -31.296875 L 11.875 -31.296875 C 15.164062 -31.296875 17.78125 -30.519531 19.71875 -28.96875 C 21.65625 -27.425781 22.625 -25.082031 22.625 -21.9375 Z M 16.640625 -21.9375 C 16.640625 -23.40625 16.265625 -24.507812 15.515625 -25.25 C 14.765625 -25.988281 13.710938 -26.359375 12.359375 -26.359375 L 9.015625 -26.359375 L 9.015625 -17.515625 L 12.359375 -17.515625 C 13.710938 -17.515625 14.765625 -17.878906 15.515625 -18.609375 C 16.265625 -19.347656 16.640625 -20.457031 16.640625 -21.9375 Z M 16.640625 -21.9375 "/></g></g></g><g fill="#ab2328" fill-opacity="1"><g transform="translate(45.813546, 51.735143)"><g><path d="M 3.03125 0 L 3.03125 -31.296875 L 9.015625 -31.296875 L 9.015625 0 Z M 3.03125 0 "/></g></g></g><g fill="#ab2328" fill-opacity="1"><g transform="translate(58.062349, 51.522017)"><g><path d="M 14.015625 -12.875 L 14.015625 -7.109375 C 14.015625 -2.367188 11.734375 0 7.171875 0 L 1.71875 0 L 1.71875 -19.984375 L 7.171875 -19.984375 C 11.734375 -19.984375 14.015625 -17.613281 14.015625 -12.875 Z M 10.1875 -7.25 L 10.1875 -12.765625 C 10.1875 -14.085938 9.925781 -15.054688 9.40625 -15.671875 C 8.894531 -16.296875 8.046875 -16.609375 6.859375 -16.609375 L 5.53125 -16.609375 L 5.53125 -3.375 L 6.734375 -3.375 C 8.003906 -3.375 8.894531 -3.695312 9.40625 -4.34375 C 9.925781 -4.988281 10.1875 -5.957031 10.1875 -7.25 Z M 10.1875 -7.25 "/></g></g></g><g fill="#ab2328" fill-opacity="1"><g transform="translate(73.457466, 51.522017)"><g><path d="M 14.015625 -13.703125 L 14.015625 -6.28125 C 14.015625 -4.175781 13.488281 -2.554688 12.4375 -1.421875 C 11.382812 -0.285156 9.804688 0.28125 7.703125 0.28125 C 5.597656 0.28125 4.019531 -0.285156 2.96875 -1.421875 C 1.914062 -2.554688 1.390625 -4.175781 1.390625 -6.28125 L 1.390625 -13.703125 C 1.390625 -15.804688 1.914062 -17.425781 2.96875 -18.5625 C 4.03125 -19.695312 5.609375 -20.265625 7.703125 -20.265625 C 9.859375 -20.265625 11.445312 -19.679688 12.46875 -18.515625 C 13.5 -17.359375 14.015625 -15.753906 14.015625 -13.703125 Z M 7.703125 -3.09375 C 8.585938 -3.09375 9.222656 -3.316406 9.609375 -3.765625 C 9.992188 -4.222656 10.1875 -4.90625 10.1875 -5.8125 L 10.1875 -14.171875 C 10.1875 -15.054688 9.992188 -15.726562 9.609375 -16.1875 C 9.222656 -16.65625 8.578125 -16.890625 7.671875 -16.890625 C 6.804688 -16.890625 6.175781 -16.65625 5.78125 -16.1875 C 5.394531 -15.726562 5.203125 -15.054688 5.203125 -14.171875 L 5.203125 -5.8125 C 5.203125 -4.90625 5.394531 -4.222656 5.78125 -3.765625 C 6.175781 -3.316406 6.816406 -3.09375 7.703125 -3.09375 Z M 7.703125 -3.09375 "/></g></g></g><g fill="#ab2328" fill-opacity="1"><g transform="translate(88.852584, 51.522017)"><g><path d="M 14.03125 -14.015625 C 14.03125 -11.367188 13.023438 -9.671875 11.015625 -8.921875 L 14.78125 0 L 10.6875 0 L 7.359375 -8.140625 L 5.53125 -8.140625 L 5.53125 0 L 1.71875 0 L 1.71875 -19.984375 L 7.34375 -19.984375 C 9.425781 -19.984375 11.0625 -19.488281 12.25 -18.5 C 13.4375 -17.519531 14.03125 -16.023438 14.03125 -14.015625 Z M 10.21875 -14.0625 C 10.21875 -14.96875 9.988281 -15.65625 9.53125 -16.125 C 9.082031 -16.59375 8.425781 -16.828125 7.5625 -16.828125 L 5.53125 -16.828125 L 5.53125 -11.296875 L 7.59375 -11.296875 C 8.4375 -11.296875 9.082031 -11.53125 9.53125 -12 C 9.988281 -12.46875 10.21875 -13.15625 10.21875 -14.0625 Z M 10.21875 -14.0625 "/></g></g></g><g fill="#ab2328" fill-opacity="1"><g transform="translate(104.247702, 51.522017)"><g><path d="M 10.796875 -6.890625 L 14.265625 -19.984375 L 19.609375 -19.984375 L 19.609375 0 L 16.328125 0 L 16.328125 -15.71875 L 16.28125 -15.71875 L 12.203125 0 L 9.328125 0 L 5.265625 -15.71875 L 5.203125 -15.71875 L 5.203125 0 L 1.9375 0 L 1.9375 -19.984375 L 7.28125 -19.984375 L 10.75 -6.890625 Z M 10.796875 -6.890625 "/></g></g></g><g fill="#ab2328" fill-opacity="1"><g transform="translate(125.78979, 51.522017)"><g><path d="M 13.59375 -15.421875 L 10.15625 -14.421875 C 9.84375 -15.367188 9.460938 -16.050781 9.015625 -16.46875 C 8.578125 -16.894531 8.023438 -17.109375 7.359375 -17.109375 C 6.703125 -17.109375 6.1875 -16.914062 5.8125 -16.53125 C 5.445312 -16.144531 5.265625 -15.617188 5.265625 -14.953125 C 5.265625 -14.359375 5.535156 -13.84375 6.078125 -13.40625 C 6.617188 -12.976562 7.425781 -12.5 8.5 -11.96875 L 9 -11.6875 C 10.625 -10.820312 11.828125 -9.898438 12.609375 -8.921875 C 13.390625 -7.953125 13.78125 -6.785156 13.78125 -5.421875 C 13.78125 -3.628906 13.191406 -2.226562 12.015625 -1.21875 C 10.835938 -0.21875 9.316406 0.28125 7.453125 0.28125 C 5.765625 0.28125 4.367188 -0.191406 3.265625 -1.140625 C 2.160156 -2.097656 1.367188 -3.5 0.890625 -5.34375 L 4.65625 -6.140625 C 4.832031 -5.109375 5.1875 -4.304688 5.71875 -3.734375 C 6.257812 -3.160156 6.890625 -2.875 7.609375 -2.875 C 8.316406 -2.875 8.882812 -3.09375 9.3125 -3.53125 C 9.75 -3.976562 9.96875 -4.554688 9.96875 -5.265625 C 9.96875 -5.796875 9.8125 -6.253906 9.5 -6.640625 C 9.195312 -7.023438 8.796875 -7.394531 8.296875 -7.75 C 7.804688 -8.101562 7.222656 -8.457031 6.546875 -8.8125 C 5.867188 -9.175781 5.441406 -9.414062 5.265625 -9.53125 C 3.972656 -10.25 3.007812 -11.023438 2.375 -11.859375 C 1.75 -12.703125 1.4375 -13.640625 1.4375 -14.671875 C 1.4375 -16.484375 1.96875 -17.867188 3.03125 -18.828125 C 4.09375 -19.785156 5.566406 -20.265625 7.453125 -20.265625 C 9.015625 -20.265625 10.332031 -19.84375 11.40625 -19 C 12.476562 -18.164062 13.207031 -16.972656 13.59375 -15.421875 Z M 13.59375 -15.421875 "/></g></g></g></svg>